<?xml version="1.0" standalone="no"?><!DOCTYPE svg PUBLIC "-//W3C//DTD SVG 1.1//EN" "http://www.w3.org/Graphics/SVG/1.1/DTD/svg11.dtd"><svg t="1646136292461" class="icon" viewBox="0 0 1024 1024" version="1.1" xmlns="http://www.w3.org/2000/svg" p-id="13715" width="128" height="128" xmlns:xlink="http://www.w3.org/1999/xlink"><defs><style type="text/css"></style></defs><path d="M704 256h68.096l147.392 159.04a32 32 0 0 1 8.512 21.76V896a32 32 0 0 1-32 32H352a32 32 0 0 1-32-32v-128H128a32 32 0 0 1-32-32V128a32 32 0 0 1 32-32h544a32 32 0 0 1 32 32v128z" fill="#FFFFFF" p-id="13716"></path><path d="M256 736v32H128a32 32 0 0 1-32-32V128a32 32 0 0 1 32-32h544a32 32 0 0 1 32 32v64h-32V128H128v608h128z" fill="#5D6D7E" p-id="13717"></path><path d="M768 257.184l0.32-0.32 160.544 157.6-1.504 1.536H928v480a32 32 0 0 1-32 32H352a32 32 0 0 1-32-32V288a32 32 0 0 1 32-32h416v1.184z m0 44.224V416h116.736L768 301.44zM736 288H352v608h544V448h-160V288z" fill="#27A2DF" p-id="13718"></path><path d="M448 416h192v32h-192v-32z m0 160h352v32H448v-32z m0 160h352v32H448v-32z" fill="#ACB4C0" p-id="13719"></path></svg>