<?xml version="1.0" standalone="no"?><!DOCTYPE svg PUBLIC "-//W3C//DTD SVG 1.1//EN" "http://www.w3.org/Graphics/SVG/1.1/DTD/svg11.dtd"><svg t="1646137669134" class="icon" viewBox="0 0 1024 1024" version="1.1" xmlns="http://www.w3.org/2000/svg" p-id="14236" width="128" height="128" xmlns:xlink="http://www.w3.org/1999/xlink"><defs><style type="text/css"></style></defs><path d="M800 320a32 32 0 0 1 32 32v89.44l111.616 6.56L864 896c0 17.664-30.336 32-48 32H145.312C127.648 928 96 888.128 96 870.464V210.624C96 192.96 127.648 160 145.312 160h243.456a32 32 0 0 1 25.408 12.544l32 51.456 80.832-51.456c42.752 62.272 64.128 104.384 64.128 126.272 0 21.888-21.376 28.96-64.128 21.184H800z" fill="#FFFFFF" p-id="14237"></path><path d="M800 320h32v96h102.4c17.664 0 29.312 14.336 25.984 32l-90.368 448c-3.328 17.664-20.352 32-38.016 32H127.552A32 32 0 0 1 96 896V192a32 32 0 0 1 32-32h128v32H128v575.2L192.384 448c3.328-17.664 20.352-32 38.016-32h58.912L203.712 267.712l27.712-16L326.272 416H800V320zM134.656 896H832c2.176 0 6.08-3.264 6.656-6.336L927.744 448H230.4c-2.176 0-6.08 3.264-6.656 6.336L134.656 896zM640 352V320h96v32h-96z" fill="#5D6D7E" p-id="14238"></path><path d="M265.12 247.744c29.728-49.28 76.288-64.608 139.744-45.952 63.424 18.624 99.968-14.08 109.664-98.048l107.424 186.08c-22.208 52.544-63.136 76.16-122.848 70.912-59.68-5.28-101.856 19.072-126.56 73.088L265.12 247.744zM374.464 373.12c31.424-33.728 74.72-48.928 127.456-44.256 40.352 3.552 66.656-8.288 83.808-37.824l-61.408-106.336c-25.28 47.04-69.344 65.152-128.48 47.776-42.528-12.48-71.552-6.944-92.704 17.12l71.328 123.52z" fill="#EF633F" p-id="14239"></path><path d="M768 224m32 0l32 0q32 0 32 32l0 32q0 32-32 32l-32 0q-32 0-32-32l0-32q0-32 32-32Z" fill="#30AD98" p-id="14240"></path></svg>